General                          : ChattChitto RG - Movies [R2L]
==========
Complete name                    : The Next Three Days 2010 720p BRRip H264 [ChattChitto RG]
Format                           : MPEG-4
Format profile                   : Base Media
Codec ID                         : isom
File size                        : 2.47 GiB
Duration                         : 2h 13mn
Overall bit rate                 : 2 652 Kbps
Encoded date                     : UTC 2011-02-23 17:34:43

Video
==========
ID                               : 1
Format                           : AVC
Format/Info                      : Advanced Video Codec
Format profile                   : High@L4.0
Format settings, CABAC           : Yes
Format settings, ReFrames        : 4 frames
Codec ID                         : avc1
Codec ID/Info                    : Advanced Video Coding
Duration                         : 2h 13mn
Bit rate mode                    : Variable
Bit rate                         : 2 300 Kbps
Maximum bit rate                 : 11.2 Mbps
Width                            : 1 280 pixels
Height                           : 528 pixels
Display aspect ratio             : 2.40:1
Frame rate mode                  : Constant
Frame rate                       : 23.976 fps
Resolution                       : 24 bits
Colorimetry                      : 4:2:0
Scan type                        : Progressive
Bits/(Pixel*Frame)               : 0.142
Stream size                      : 2.14 GiB (87%)
Writing library                  : x264 core 84 r1400M 20fa784
Encoded date                     : UTC 2011-02-22 20:48:19

Audio
==========
ID                               : 2
Format                           : AAC
Format/Info                      : Advanced Audio Codec
Format version                   : Version 4
Format profile                   : LC
Format settings, SBR             : No
Codec ID                         : 40
Duration                         : 2h 13mn
Bit rate mode                    : Variable
Bit rate                         : 352.8 Kbps
Maximum bit rate                 : 468 Kbps
Channel(s)                       : 6 channels
Channel positions                : Front: L C R, Rear: L R, LFE
Sampling rate                    : 48.0 KHz
Resolution                       : 16 bits
Stream size                      : 332 MiB (13%)
Encoded date                     : UTC 2011-02-23 17:35:59

Subtitles                        : English | Portuguese | Spanish


----------------------------------------------------
IMDB Link: http://www.imdb.com/title/tt1458175/
----------------------------------------------------



Screen Shots:
==============    
http://chattchitto.net/chattchittorg/movies/brrip/2011/next_three_days/3.png  
http://chattchitto.net/chattchittorg/movies/brrip/2011/next_three_days/4.png 
http://chattchitto.net/chattchittorg/movies/brrip/2011/next_three_days/5.png 
http://chattchitto.net/chattchittorg/movies/brrip/2011/next_three_days/6.png 
http://chattchitto.net/chattchittorg/movies/brrip/2011/next_three_days/7.png



ScreenShots Comparison:
=========================  
http://screenshotcomparison.com/comparison/30957



Plot:
======
A married couple's life is turned upside down when the wife is accused of a murder. After her unjust conviction, her husband, with the advice of a wanted fugitive, plots to break her out of prison.



Release Info:
==============
original name .... : The Next Three Days 2010 720p BRRip H264 [ChattChitto RG]
ripper.............: TWiZTED
encoder............: Recalled2Life (R2L)
video codec........: H264/.MP4
video bitrate......: 2300 Kbps
audio codec........: AAC-LC
aspect ratio.......: 2.40:1
resolution.........: 1280 x 528
genre..............: Crime | Drama | Romance
runtime............: 2h 13mn
language...........: English
rating.............: PG-13
subtitles..........: English | Portuguese | Spanish
sample.............: Yes [16.1 MB]
2ch Audio..........: 2ch Audio for XBox Viewers  
Compatibility .....: XBox | PS3 | WD Live



Source:
========
The.Next.Three.Days.1080p.BluRay.x264-TWiZTED  THANKS!



Notes:
=======
ChattChitto RG Encourages Burning this Film with ConvertXtoDVD and Playing with VLC media player.
XBox 360 | PS3 | WD Live - Compatible 
Enhanced for your viewing pleasure ;)